{
  "asset": {
    "generator": "glTF-Transform v4.2.1",
    "version": "2.0"
  },
  "accessors": [
    {
      "type": "VEC3",
      "componentType": 5126,
      "count": 3336228,
      "max": [
        45.895450592041016,
        54.375511169433594,
        34.293724060058594
      ],
      "min": [
        -10.090810775756836,
        -4.729671478271484,
        4.779191970825195
      ],
      "bufferView": 0,
      "byteOffset": 0
    },
    {
      "type": "VEC3",
      "componentType": 5126,
      "count": 3336228,
      "bufferView": 0,
      "byteOffset": 12
    },
    {
      "type": "SCALAR",
      "componentType": 5125,
      "count": 3336228,
      "bufferView": 1,
      "byteOffset": 0
    }
  ],
  "bufferViews": [
    {
      "buffer": 0,
      "byteOffset": 0,
      "byteLength": 80069472,
      "byteStride": 24,
      "target": 34962
    },
    {
      "buffer": 0,
      "byteOffset": 80069472,
      "byteLength": 13344912,
      "target": 34963
    }
  ],
  "buffers": [
    {
      "uri": "buffer.bin",
      "byteLength": 93414384
    }
  ],
  "materials": [
    {
      "name": "19 - Default",
      "pbrMetallicRoughness": {
        "baseColorFactor": [
          0.4574958086013794,
          0.5315669775009155,
          0.6961071491241455,
          1
        ],
        "roughnessFactor": 0.8585786819458008,
        "metallicFactor": 0
      }
    }
  ],
  "meshes": [
    {
      "name": "Parapet",
      "primitives": [
        {
          "attributes": {
            "POSITION": 0,
            "NORMAL": 1
          },
          "mode": 4,
          "material": 0,
          "indices": 2
        }
      ]
    }
  ],
  "nodes": [
    {
      "name": "RootNode",
      "children": [
        1
      ]
    },
    {
      "name": "Parapet_$AssimpFbx$_Translation",
      "translation": [
        -19.194156646728516,
        -0.029191970825195312,
        22.034366607666016
      ],
      "children": [
        2
      ]
    },
    {
      "name": "Parapet_$AssimpFbx$_PreRotation",
      "rotation": [
        -0.707106796640857,
        0,
        0,
        0.7071067657322379
      ],
      "children": [
        3
      ]
    },
    {
      "name": "Parapet",
      "extras": {
        "UserProperties": "",
        "IsNull": false,
        "DefaultAttributeIndex": 0,
        "InheritType": 1,
        "MaxHandle": 21307,
        "RotationActive": true,
        "ScalingMax": null
      },
      "mesh": 0
    }
  ],
  "scenes": [
    {
      "nodes": [
        0
      ]
    }
  ],
  "scene": 0,
  "extensionsUsed": [
    "KHR_materials_volume"
  ]
}